<?xml version="1.0" encoding="UTF-8" standalone="no"?> <svg width="64" height="64" viewBox="0 0 64 64" fill="none" xmlns="http://www.w3.org/2000/svg">
<path d="M24 45C35.598 45 45 35.598 45 24C45 12.402 35.598 3 24 3C12.402 3 3 12.402 3 24C3 35.598 12.402 45 24 45Z" fill="#ADE8F4"/>
<path d="M43.53 31.71C42.2829 34.8723 40.2868 37.6847 37.7131 39.9054C35.1395 42.1261 32.0651 43.6889 28.7543 44.4594C25.4434 45.23 21.995 45.1853 18.7052 44.3291C15.4155 43.473 12.3827 41.831 9.86748 39.5443C7.35225 37.2576 5.42974 34.3944 4.2651 31.2008C3.10046 28.0072 2.7285 24.5786 3.18118 21.2096C3.63385 17.8405 4.89763 14.6317 6.86395 11.8588C8.83028 9.08585 11.4404 6.83172 14.47 5.29001C13.2113 8.47427 12.7506 11.9181 13.1281 15.3212C13.5055 18.7243 14.7097 21.9835 16.6355 24.8146C18.5613 27.6456 21.1504 29.9627 24.1771 31.5637C27.2037 33.1647 30.576 34.0011 34 34C37.3138 34.0074 40.5813 33.2222 43.53 31.71V31.71Z" fill="#48CAE4"/>
<path d="M24 41C33.3888 41 41 33.3888 41 24C41 14.6112 33.3888 7 24 7C14.6112 7 7 14.6112 7 24C7 33.3888 14.6112 41 24 41Z" fill="#00B4D8"/>
<path d="M24 7C20.6377 7 17.3509 7.99703 14.5553 9.86502C11.7596 11.733 9.58072 14.388 8.29403 17.4944C7.00734 20.6007 6.67068 24.0189 7.32663 27.3165C7.98258 30.6142 9.60167 33.6433 11.9792 36.0208C14.3567 38.3983 17.3858 40.0174 20.6834 40.6734C23.9811 41.3293 27.3993 40.9926 30.5056 39.706C33.6119 38.4193 36.267 36.2403 38.135 33.4447C40.0029 30.6491 41 27.3623 41 24C41 19.4913 39.2089 15.1673 36.0208 11.9792C32.8327 8.79107 28.5087 7 24 7V7ZM35.925 33.9C35.29 33.957 34.65 34 34 34C28.4304 34 23.089 31.7875 19.1507 27.8492C15.2125 23.911 13 18.5695 13 13C13 12.834 13.02 12.674 13.023 12.509C16.0773 11.1233 19.4738 10.6739 22.7833 11.2175C26.0929 11.7612 29.1671 13.2736 31.6176 15.5635C34.0681 17.8535 35.785 20.8184 36.5513 24.0836C37.3175 27.3489 37.0989 30.768 35.923 33.909L35.925 33.9Z" fill="#0096C7"/>
<path d="M24 38L16 25L24 29L32 25L24 38Z" fill="#ADE8F4"/>
<path d="M24 11V25L32 21L24 11Z" fill="#ADE8F4"/>
<path d="M16 21L24 25V11L16 21Z" fill="#48CAE4"/>
<path d="M24 38L16 25L24 29V38Z" fill="#48CAE4"/>
<path d="M19 57L15 53V55H11C10.4696 55 9.96086 54.7893 9.58579 54.4142C9.21071 54.0391 9 53.5304 9 53V49H11L7 45L3 49H5V53C5 54.5913 5.63214 56.1174 6.75736 57.2426C7.88258 58.3679 9.4087 59 11 59H15V61L19 57Z" fill="#ADE8F4"/>
<path d="M45 7L49 11V9H53C53.5304 9 54.0391 9.21071 54.4142 9.58579C54.7893 9.96086 55 10.4696 55 11V15H53L57 19L61 15H59V11C59 9.4087 58.3679 7.88258 57.2426 6.75736C56.1174 5.63214 54.5913 5 53 5H49V3L45 7Z" fill="#ADE8F4"/>
<path d="M57 14V9.99999C57 9.20434 56.6839 8.44127 56.1213 7.87866C55.5587 7.31606 54.7956 6.99999 54 6.99999H50C49.3565 6.99856 48.7306 6.78954 48.2153 6.404C47.7001 6.01846 47.3229 5.47697 47.14 4.85999L45 6.99999L49 11V8.99999H53C53.5304 8.99999 54.0391 9.2107 54.4142 9.58577C54.7893 9.96084 55 10.4696 55 11V15H53L57 19L59.14 16.86C58.523 16.677 57.9815 16.2999 57.596 15.7847C57.2104 15.2694 57.0014 14.6435 57 14V14Z" fill="#48CAE4"/>
<path d="M15 57H11C9.93913 57 8.92172 56.5786 8.17157 55.8284C7.42143 55.0783 7 54.0609 7 53V49C6.99924 48.4746 7.1024 47.9543 7.30354 47.4689C7.50468 46.9836 7.79983 46.5428 8.172 46.172L7 45L3 49H5V53C5 54.5913 5.63214 56.1174 6.75736 57.2426C7.88258 58.3679 9.4087 59 11 59H15V61L19 57L17.828 55.828C17.4572 56.2002 17.0164 56.4953 16.5311 56.6965C16.0457 56.8976 15.5254 57.0008 15 57V57Z" fill="#48CAE4"/>
<path d="M41 61C52.598 61 62 51.598 62 40C62 28.402 52.598 19 41 19C29.402 19 20 28.402 20 40C20 51.598 29.402 61 41 61Z" fill="#FFFA48"/>
<path d="M60.53 47.71C59.2829 50.8723 57.2868 53.6847 54.7131 55.9054C52.1395 58.1261 49.0651 59.6889 45.7543 60.4594C42.4434 61.23 38.995 61.1853 35.7052 60.3291C32.4155 59.473 29.3827 57.831 26.8675 55.5443C24.3523 53.2576 22.4297 50.3944 21.2651 47.2008C20.1005 44.0072 19.7285 40.5786 20.1812 37.2096C20.6339 33.8405 21.8976 30.6317 23.864 27.8588C25.8303 25.0858 28.4404 22.8317 31.47 21.29C29.9027 25.2555 29.5801 29.6042 30.5451 33.7576C31.51 37.9109 33.7168 41.672 36.8718 44.5403C40.0268 47.4087 43.9804 49.2484 48.2066 49.8146C52.4328 50.3808 56.7312 49.6467 60.53 47.71V47.71Z" fill="#FCEA42"/>
<path d="M41 57C50.3888 57 58 49.3888 58 40C58 30.6112 50.3888 23 41 23C31.6112 23 24 30.6112 24 40C24 49.3888 31.6112 57 41 57Z" fill="#FDC741"/>
<path d="M41 23C37.6377 23 34.3509 23.997 31.5553 25.865C28.7596 27.733 26.5807 30.388 25.294 33.4944C24.0073 36.6007 23.6707 40.0189 24.3266 43.3165C24.9826 46.6142 26.6017 49.6433 28.9792 52.0208C31.3567 54.3983 34.3858 56.0174 37.6834 56.6734C40.9811 57.3293 44.3993 56.9926 47.5056 55.706C50.6119 54.4193 53.267 52.2403 55.135 49.4447C57.0029 46.6491 58 43.3623 58 40C58 35.4913 56.2089 31.1673 53.0208 27.9792C49.8327 24.7911 45.5087 23 41 23ZM52.925 49.9C52.29 49.957 51.65 50 51 50C45.4304 50 40.089 47.7875 36.1507 43.8492C32.2125 39.911 30 34.5695 30 29C30 28.834 30.02 28.674 30.023 28.509C33.0773 27.1233 36.4738 26.6739 39.7833 27.2175C43.0929 27.7612 46.1671 29.2736 48.6176 31.5635C51.0681 33.8535 52.785 36.8184 53.5513 40.0836C54.3175 43.3489 54.0989 46.768 52.923 49.909L52.925 49.9Z" fill="#EFAD1B"/>
<path d="M11 25C11.5523 25 12 24.5523 12 24C12 23.4477 11.5523 23 11 23C10.4477 23 10 23.4477 10 24C10 24.5523 10.4477 25 11 25Z" fill="#323232"/>
<path d="M15.707 52.293C15.5671 52.1532 15.389 52.058 15.195 52.0194C15.0011 51.9809 14.8 52.0007 14.6173 52.0764C14.4346 52.152 14.2785 52.2802 14.1686 52.4446C14.0587 52.609 14 52.8023 14 53V54H11C10.7348 54 10.4804 53.8947 10.2929 53.7071C10.1054 53.5196 10 53.2652 10 53V50H11C11.1978 50 11.391 49.9413 11.5555 49.8314C11.7199 49.7215 11.848 49.5654 11.9237 49.3827C11.9993 49.2 12.0192 48.999 11.9806 48.805C11.942 48.611 11.8468 48.4329 11.707 48.293L7.707 44.293C7.51947 44.1056 7.26516 44.0002 7 44.0002C6.73484 44.0002 6.48053 44.1056 6.293 44.293L2.293 48.293C2.15319 48.4329 2.05798 48.611 2.01942 48.805C1.98085 48.999 2.00065 49.2 2.07632 49.3827C2.15199 49.5654 2.28013 49.7215 2.44454 49.8314C2.60895 49.9413 2.80225 50 3 50H4V53C4.00212 54.8559 4.7403 56.6351 6.05259 57.9474C7.36489 59.2597 9.14414 59.9979 11 60C11.2652 60 11.5196 59.8947 11.7071 59.7071C11.8946 59.5196 12 59.2652 12 59C12 58.7348 11.8946 58.4805 11.7071 58.2929C11.5196 58.1054 11.2652 58 11 58C9.67441 57.9984 8.40356 57.4711 7.46622 56.5338C6.52888 55.5965 6.00159 54.3256 6 53V49C6.00013 48.7963 5.93805 48.5975 5.82207 48.43C5.70608 48.2626 5.54173 48.1345 5.351 48.063L7 46.414L8.649 48.063C8.45827 48.1345 8.29392 48.2626 8.17793 48.43C8.06195 48.5975 7.99987 48.7963 8 49V53C8 53.7957 8.31607 54.5587 8.87868 55.1213C9.44129 55.684 10.2044 56 11 56H15C15.2037 56.0002 15.4026 55.9381 15.57 55.8221C15.7375 55.7061 15.8655 55.5418 15.937 55.351L17.586 57L15.937 58.649C15.8551 58.4292 15.6985 58.2452 15.4946 58.1292C15.2907 58.0132 15.0525 57.9726 14.8217 58.0144C14.5909 58.0562 14.3821 58.1778 14.2319 58.358C14.0817 58.5382 13.9996 58.7655 14 59V61C14 61.1978 14.0587 61.3911 14.1686 61.5555C14.2785 61.7199 14.4346 61.848 14.6173 61.9237C14.8 61.9994 15.0011 62.0192 15.195 61.9806C15.389 61.942 15.5671 61.8468 15.707 61.707L19.707 57.707C19.8945 57.5195 19.9998 57.2652 19.9998 57C19.9998 56.7349 19.8945 56.4806 19.707 56.293L15.707 52.293Z" fill="#323232"/>
<path d="M48.293 11.707C48.4329 11.8468 48.611 11.942 48.805 11.9806C48.9989 12.0192 49.2 11.9993 49.3827 11.9237C49.5654 11.848 49.7215 11.7199 49.8314 11.5555C49.9413 11.391 50 11.1978 50 11V10H53C53.2652 10 53.5196 10.1054 53.7071 10.2929C53.8946 10.4804 54 10.7348 54 11V14H53C52.8022 14 52.609 14.0587 52.4445 14.1686C52.2801 14.2785 52.152 14.4346 52.0763 14.6173C52.0007 14.8 51.9808 15.0011 52.0194 15.195C52.058 15.389 52.1532 15.5671 52.293 15.707L56.293 19.707C56.4805 19.8945 56.7348 19.9998 57 19.9998C57.2652 19.9998 57.5195 19.8945 57.707 19.707L61.707 15.707C61.8468 15.5671 61.942 15.389 61.9806 15.195C62.0192 15.0011 61.9993 14.8 61.9237 14.6173C61.848 14.4346 61.7199 14.2785 61.5555 14.1686C61.391 14.0587 61.1978 14 61 14H60V11C59.9979 9.14414 59.2597 7.36489 57.9474 6.05259C56.6351 4.7403 54.8559 4.00212 53 4H50V3C50 2.80225 49.9413 2.60895 49.8314 2.44454C49.7215 2.28013 49.5654 2.15199 49.3827 2.07632C49.2 2.00065 48.9989 1.98085 48.805 2.01942C48.611 2.05798 48.4329 2.15319 48.293 2.293L44.293 6.293C44.1055 6.48053 44.0002 6.73484 44.0002 7C44.0002 7.26516 44.1055 7.51947 44.293 7.707L48.293 11.707ZM48.063 5.351C48.1345 5.54173 48.2625 5.70608 48.43 5.82207C48.5974 5.93805 48.7963 6.00013 49 6H53C54.3256 6.00159 55.5964 6.52888 56.5338 7.46622C57.4711 8.40356 57.9984 9.67441 58 11V15C57.9999 15.2037 58.062 15.4026 58.1779 15.57C58.2939 15.7375 58.4583 15.8655 58.649 15.937L57 17.586L55.351 15.937C55.5417 15.8655 55.7061 15.7375 55.8221 15.57C55.938 15.4026 56.0001 15.2037 56 15V11C56 10.2044 55.6839 9.44129 55.1213 8.87868C54.5587 8.31607 53.7956 8 53 8H49C48.7963 7.99987 48.5974 8.06195 48.43 8.17793C48.2625 8.29392 48.1345 8.45827 48.063 8.649L46.414 7L48.063 5.351Z" fill="#323232"/>
<path d="M57.967 26C57.8833 25.8988 57.7805 25.815 57.6644 25.7535C57.5483 25.692 57.4212 25.654 57.2904 25.6416C57.1596 25.6292 57.0277 25.6426 56.9021 25.6812C56.7765 25.7198 56.6598 25.7828 56.5585 25.8665C56.4573 25.9502 56.3735 26.0531 56.312 26.1692C56.2505 26.2853 56.2124 26.4123 56.2001 26.5431C56.1877 26.6739 56.2011 26.8059 56.2397 26.9314C56.2783 27.057 56.3413 27.1738 56.425 27.275C59.6962 31.2387 61.316 36.3095 60.9485 41.4355C60.581 46.5615 58.2544 51.3494 54.4512 54.8059C50.6481 58.2624 45.6604 60.1222 40.5226 59.9996C35.3849 59.877 30.4915 57.7814 26.8576 54.1474C23.2236 50.5135 21.128 45.6201 21.0054 40.4824C20.8828 35.3447 22.7427 30.3569 26.1992 26.5538C29.6557 22.7506 34.4435 20.424 39.5695 20.0565C44.6956 19.689 49.7663 21.3088 53.73 24.58C53.8313 24.6637 53.948 24.7267 54.0736 24.7653C54.1992 24.8039 54.3311 24.8174 54.4619 24.805C54.5927 24.7926 54.7198 24.7545 54.8359 24.693C54.952 24.6315 55.0548 24.5478 55.1385 24.4465C55.2222 24.3453 55.2852 24.2285 55.3238 24.1029C55.3624 23.9774 55.3759 23.8454 55.3635 23.7146C55.3511 23.5838 55.313 23.4568 55.2515 23.3407C55.19 23.2246 55.1063 23.1217 55.005 23.038C51.0623 19.7852 46.1114 18.0043 41 18H40.958C39.8983 14.9975 38.0606 12.3301 35.6326 10.2703C33.2046 8.21049 30.2733 6.8321 27.1382 6.27595C24.0032 5.71979 20.7766 6.0058 17.7883 7.10476C14.7999 8.20371 12.1568 10.0762 10.129 12.531C9.9598 12.7354 9.8787 12.9986 9.90355 13.2627C9.9284 13.5268 10.0572 13.7703 10.2615 13.9395C10.4659 14.1087 10.7291 14.1898 10.9932 14.165C11.2573 14.1401 11.5008 14.0114 11.67 13.807C13.4402 11.663 15.7387 10.0176 18.339 9.03317C20.9392 8.04875 23.7511 7.75933 26.4973 8.19347C29.2436 8.62761 31.8291 9.77032 33.9989 11.5088C36.1686 13.2473 37.8475 15.5215 38.87 18.107C36.611 18.3248 34.3997 18.8936 32.316 19.793L24.784 10.377C24.6868 10.2654 24.5667 10.176 24.432 10.1147C24.2973 10.0534 24.151 10.0217 24.003 10.0217C23.855 10.0217 23.7087 10.0534 23.574 10.1147C23.4393 10.176 23.3193 10.2654 23.222 10.377L15.222 20.377C15.1287 20.4935 15.0627 20.6294 15.0287 20.7747C14.9948 20.92 14.9938 21.0711 15.0258 21.2168C15.0578 21.3626 15.1221 21.4993 15.2138 21.617C15.3055 21.7347 15.4225 21.8304 15.556 21.897L23.556 25.897C23.6941 25.9651 23.8461 26.0003 24 26C24.018 26 24.035 25.988 24.053 25.987C23.681 26.436 23.332 26.903 22.996 27.38L16.447 24.105C16.2525 24.0072 16.0313 23.9755 15.8171 24.0149C15.603 24.0542 15.4075 24.1623 15.2604 24.3229C15.1133 24.4835 15.0226 24.6876 15.0022 24.9044C14.9817 25.1212 15.0326 25.3388 15.147 25.524L20.005 33.419C19.4211 35.2847 19.0898 37.2203 19.02 39.174C15.819 38.1279 13.0301 36.0976 11.0512 33.3727C9.0723 30.6478 8.00446 27.3676 8.00001 24C7.99384 21.5697 8.54784 19.1706 9.61901 16.989C9.73558 16.7503 9.75254 16.4751 9.66618 16.2239C9.57982 15.9727 9.39721 15.7661 9.15851 15.6495C8.91982 15.533 8.64459 15.516 8.39339 15.6023C8.14218 15.6887 7.93557 15.8713 7.81901 16.11C6.66654 18.4703 6.0456 21.0545 5.99994 23.6807C5.95428 26.3069 6.485 28.9111 7.55473 31.31C8.62446 33.7089 10.2072 35.8441 12.1914 37.5651C14.1756 39.2861 16.513 40.5511 19.039 41.271C19.08 41.986 19.154 42.693 19.262 43.388C15.9523 42.581 12.904 40.9411 10.4067 38.6242C7.90932 36.3072 6.04594 33.3901 4.99359 30.1501C3.94124 26.9101 3.73488 23.4548 4.39412 20.1125C5.05336 16.7703 6.5563 13.6522 8.76012 11.0544C10.9639 8.45668 13.7954 6.46563 16.9855 5.27047C20.1756 4.07531 23.6183 3.71575 26.9866 4.22596C30.3548 4.73616 33.5365 6.09919 36.2296 8.1855C38.9226 10.2718 41.0374 13.0121 42.373 16.146C42.4826 16.3815 42.6796 16.5651 42.9222 16.658C43.1648 16.7509 43.434 16.7457 43.6728 16.6435C43.9117 16.5414 44.1014 16.3503 44.2019 16.1108C44.3023 15.8712 44.3056 15.602 44.211 15.36C42.7245 11.8745 40.3625 8.83239 37.3539 6.52871C34.3454 4.22502 30.7926 2.73799 27.0401 2.21187C23.2875 1.68575 19.4628 2.1384 15.9367 3.5259C12.4107 4.91341 9.30307 7.18868 6.91538 10.131C4.5277 13.0733 2.94099 16.5827 2.30917 20.3189C1.67735 24.0551 2.02187 27.8911 3.3093 31.4549C4.59674 35.0187 6.78339 38.1893 9.65714 40.6591C12.5309 43.1289 15.9942 44.814 19.711 45.551C20.541 48.7371 22.0756 51.6963 24.2016 54.2104C26.3275 56.7245 28.9907 58.7293 31.9946 60.0771C34.9986 61.4249 38.2668 62.0813 41.5582 61.9978C44.8496 61.9143 48.0803 61.0932 51.0121 59.5949C53.9438 58.0965 56.5019 55.9593 58.4978 53.3407C60.4936 50.7221 61.8762 47.6889 62.5436 44.4648C63.2111 41.2407 63.1464 37.9079 62.3543 34.7122C61.5622 31.5164 60.0629 28.5392 57.967 26V26ZM25 23.382V13.851L30.446 20.659L25 23.382ZM23 13.851V23.382L17.554 20.659L23 13.851ZM18.69 27.463L21.916 29.076C21.5455 29.7208 21.2081 30.384 20.905 31.063L18.69 27.463Z" fill="#323232"/>
<path d="M28 41C28.5523 41 29 40.5523 29 40C29 39.4477 28.5523 39 28 39C27.4477 39 27 39.4477 27 40C27 40.5523 27.4477 41 28 41Z" fill="#323232"/>
<path d="M54 41C54.5523 41 55 40.5523 55 40C55 39.4477 54.5523 39 54 39C53.4477 39 53 39.4477 53 40C53 40.5523 53.4477 41 54 41Z" fill="#323232"/>
<path d="M29.7 52.723C29.5372 52.931 29.4632 53.1949 29.4943 53.4572C29.5254 53.7195 29.659 53.9589 29.866 54.123C33.0295 56.642 36.9561 58.0093 41 58C44.5601 58 48.0402 56.9443 51.0003 54.9665C53.9603 52.9886 56.2675 50.1774 57.6298 46.8883C58.9922 43.5992 59.3487 39.98 58.6541 36.4884C57.9596 32.9967 56.2453 29.7894 53.7279 27.2721C51.2106 24.7547 48.0033 23.0404 44.5116 22.3459C41.02 21.6513 37.4008 22.0078 34.1117 23.3702C30.8226 24.7326 28.0114 27.0397 26.0335 29.9997C24.0557 32.9598 23 36.4399 23 40C22.9898 44.0431 24.3556 47.9693 26.873 51.133C27.0373 51.3412 27.2776 51.4756 27.541 51.5066C27.8044 51.5377 28.0693 51.4628 28.2775 51.2985C28.4857 51.1342 28.6201 50.8939 28.6511 50.6305C28.6822 50.3671 28.6073 50.1022 28.443 49.894C26.2052 47.0826 24.9909 43.5933 25 40C25 36.8355 25.9384 33.7421 27.6965 31.1109C29.4546 28.4797 31.9534 26.4289 34.8771 25.2179C37.8007 24.0069 41.0177 23.6901 44.1214 24.3074C47.2251 24.9248 50.0761 26.4487 52.3137 28.6863C54.5513 30.9239 56.0752 33.7749 56.6926 36.8786C57.3099 39.9823 56.9931 43.1993 55.7821 46.1229C54.5711 49.0466 52.5203 51.5454 49.8891 53.3035C47.2579 55.0616 44.1645 56 41 56C37.4067 56.0091 33.9174 54.7948 31.106 52.557C31.0028 52.4754 30.8846 52.415 30.7581 52.3792C30.6315 52.3434 30.4992 52.3329 30.3686 52.3484C30.238 52.3638 30.1117 52.4048 29.997 52.4691C29.8822 52.5334 29.7813 52.6197 29.7 52.723V52.723Z" fill="#323232"/>
<path d="M31.77 35.027C31.5508 35.0788 31.3556 35.2031 31.2158 35.3797C31.0761 35.5562 31 35.7748 31 36V44C31 44.2652 31.1054 44.5196 31.2929 44.7071C31.4804 44.8947 31.7348 45 32 45C32.2652 45 32.5196 44.8947 32.7071 44.7071C32.8946 44.5196 33 44.2652 33 44V40.236L35.1 44.447C35.1991 44.6516 35.3649 44.8164 35.5701 44.9141C35.7754 45.0119 36.0078 45.0367 36.2291 44.9847C36.4504 44.9326 36.6473 44.8067 36.7874 44.6277C36.9276 44.4487 37.0026 44.2273 37 44V36C37 35.7348 36.8946 35.4804 36.7071 35.2929C36.5196 35.1054 36.2652 35 36 35C35.7348 35 35.4804 35.1054 35.2929 35.2929C35.1054 35.4804 35 35.7348 35 36V39.764L32.9 35.553C32.799 35.3504 32.6322 35.188 32.427 35.0924C32.2217 34.9969 31.9901 34.9738 31.77 35.027Z" fill="#323232"/>
<path d="M44 37C44.2652 37 44.5196 36.8946 44.7071 36.7071C44.8946 36.5196 45 36.2652 45 36C45 35.7348 44.8946 35.4804 44.7071 35.2929C44.5196 35.1054 44.2652 35 44 35H40C39.7348 35 39.4804 35.1054 39.2929 35.2929C39.1054 35.4804 39 35.7348 39 36V44C39 44.2652 39.1054 44.5196 39.2929 44.7071C39.4804 44.8946 39.7348 45 40 45C40.2652 45 40.5196 44.8946 40.7071 44.7071C40.8946 44.5196 41 44.2652 41 44V41H43C43.2652 41 43.5196 40.8946 43.7071 40.7071C43.8946 40.5196 44 40.2652 44 40C44 39.7348 43.8946 39.4804 43.7071 39.2929C43.5196 39.1054 43.2652 39 43 39H41V37H44Z" fill="#323232"/>
<path d="M52 35H48C47.7348 35 47.4804 35.1054 47.2929 35.2929C47.1054 35.4804 47 35.7348 47 36C47 36.2652 47.1054 36.5196 47.2929 36.7071C47.4804 36.8946 47.7348 37 48 37H49V44C49 44.2652 49.1054 44.5196 49.2929 44.7071C49.4804 44.8946 49.7348 45 50 45C50.2652 45 50.5196 44.8946 50.7071 44.7071C50.8946 44.5196 51 44.2652 51 44V37H52C52.2652 37 52.5196 36.8946 52.7071 36.7071C52.8946 36.5196 53 36.2652 53 36C53 35.7348 52.8946 35.4804 52.7071 35.2929C52.5196 35.1054 52.2652 35 52 35Z" fill="#323232"/>
<path d="M41.555 27.168C41.3907 27.0584 41.1976 26.9999 41 26.9999C40.8025 26.9999 40.6093 27.0584 40.445 27.168L34.445 31.168C34.2243 31.3152 34.0712 31.544 34.0192 31.8042C33.9673 32.0643 34.0208 32.3344 34.168 32.555C34.3152 32.7757 34.544 32.9288 34.8041 32.9808C35.0643 33.0327 35.3343 32.9792 35.555 32.832L41 29.2L46.445 32.83C46.5543 32.9029 46.6768 32.9536 46.8056 32.9791C46.9345 33.0046 47.0671 33.0045 47.1959 32.9788C47.3247 32.9531 47.4471 32.9022 47.5563 32.8292C47.6654 32.7561 47.7591 32.6623 47.832 32.553C47.9049 32.4438 47.9555 32.3212 47.9811 32.1924C48.0066 32.0636 48.0065 31.931 47.9808 31.8022C47.955 31.6734 47.9042 31.5509 47.8312 31.4417C47.7581 31.3326 47.6643 31.2389 47.555 31.166L41.555 27.168Z" fill="#323232"/>
<path d="M34.168 47.445C34.0951 47.5543 34.0444 47.6768 34.0189 47.8056C33.9934 47.9345 33.9935 48.0671 34.0192 48.1959C34.0449 48.3247 34.0957 48.4472 34.1688 48.5563C34.2419 48.6654 34.3357 48.7591 34.445 48.832L40.445 52.832C40.6093 52.9416 40.8024 53.0002 41 53.0002C41.1975 53.0002 41.3907 52.9416 41.555 52.832L47.555 48.832C47.6642 48.7591 47.7581 48.6654 47.8311 48.5563C47.9042 48.4471 47.955 48.3247 47.9807 48.1959C48.0065 48.0671 48.0066 47.9345 47.981 47.8056C47.9555 47.6768 47.9049 47.5543 47.832 47.445C47.7591 47.3357 47.6654 47.2419 47.5563 47.1689C47.4471 47.0958 47.3247 47.045 47.1959 47.0192C47.0671 46.9935 46.9345 46.9934 46.8056 47.0189C46.6768 47.0445 46.5542 47.0951 46.445 47.168L41 50.8L35.555 47.17C35.3346 47.0226 35.0646 46.9687 34.8045 47.0203C34.5444 47.0719 34.3155 47.2246 34.168 47.445V47.445Z" fill="#323232"/>
</svg>
